<?xml version="1.0" standalone="no"?>
<!DOCTYPE svg PUBLIC "-//W3C//DTD SVG 20010904//EN"
 "http://www.w3.org/TR/2001/REC-SVG-20010904/DTD/svg10.dtd">
<svg version="1.0" xmlns="http://www.w3.org/2000/svg"
 width="145.000000pt" height="145.000000pt" viewBox="0 0 145.000000 145.000000"
 preserveAspectRatio="xMidYMid meet">

<g transform="translate(0.000000,145.000000) scale(0.100000,-0.100000)"
fill="#000000" stroke="none">
<path d="M330 1093 c-72 -23 -218 -88 -214 -94 2 -5 10 -6 17 -4 188 61 250
77 297 78 82 2 217 -19 285 -43 33 -12 66 -24 74 -26 8 -2 -44 -33 -115 -68
-141 -70 -215 -120 -318 -217 -58 -53 -76 -80 -123 -176 -31 -63 -52 -117 -48
-121 10 -10 37 26 86 115 58 108 99 154 188 216 100 70 111 76 81 42 -21 -23
-22 -27 -6 -21 88 31 101 30 224 -14 64 -24 128 -50 142 -58 37 -23 90 -74 90
-87 0 -6 -25 -39 -56 -73 -62 -69 -114 -93 -153 -73 -28 15 -27 24 7 62 l28
32 33 -17 c18 -10 35 -16 37 -14 4 5 -159 141 -176 146 -7 3 -5 -9 5 -27 18
-36 14 -60 -15 -86 -20 -18 -21 -17 -58 26 -20 24 -52 60 -70 79 l-33 35 27
-55 c15 -30 40 -74 56 -97 28 -42 29 -43 11 -68 -10 -14 -28 -25 -42 -25 -20
0 -11 -10 49 -55 40 -30 75 -55 78 -55 2 0 -3 12 -13 26 -13 21 -15 31 -6 50
l11 24 47 -30 c26 -17 53 -30 60 -30 26 0 12 -20 -44 -59 -31 -23 -53 -41 -49
-41 18 0 193 97 247 136 64 48 114 109 124 153 4 17 -2 49 -15 85 -26 67 -73
110 -197 174 -79 41 -82 42 -117 27 -45 -19 -66 -19 -66 0 0 18 37 37 115 60
106 31 165 14 165 -48 1 -32 1 -32 75 47 41 44 73 82 71 83 -2 2 -24 -1 -50
-8 -58 -15 -90 -9 -202 35 -122 47 -237 66 -398 65 -72 0 -138 -3 -146 -6z"/>
</g>
</svg>
